<?xml version="1.0" ?><!DOCTYPE svg  PUBLIC '-//W3C//DTD SVG 1.1//EN'  'http://www.w3.org/Graphics/SVG/1.1/DTD/svg11.dtd'><svg enable-background="new 0 0 512 512" height="512px" id="Calque_1" version="1.1" viewBox="0 0 512 512" width="512px" xml:space="preserve" xmlns="http://www.w3.org/2000/svg" xmlns:xlink="http://www.w3.org/1999/xlink"><g><g><g id="XMLID_1_"><g><circle cx="421.63" cy="377.48" fill="#ECEFF0" r="20.53"/><path d="M22.15,351.02h43.67c-4.78,7.68-7.54,16.75-7.54,26.46H22.15V351.02z" fill="#526471"/><path d="M108.47,356.95c11.34,0,20.54,9.19,20.54,20.53s-9.2,20.53-20.54,20.53c-11.33,0-20.53-9.19-20.53-20.53      S97.14,356.95,108.47,356.95z" fill="#ECEFF0"/><path d="M151.13,351.02c4.78,7.68,7.54,16.75,7.54,26.46c0,27.72-22.48,50.19-50.2,50.19      s-50.19-22.47-50.19-50.19c0-9.71,2.76-18.78,7.54-26.46c8.85-14.25,24.64-23.73,42.65-23.73S142.28,336.77,151.13,351.02z       M129.01,377.48c0-11.34-9.2-20.53-20.54-20.53c-11.33,0-20.53,9.19-20.53,20.53s9.2,20.53,20.53,20.53      C119.81,398.01,129.01,388.82,129.01,377.48z" fill="#303C44"/><path d="M378.97,351.02h0.01c-4.78,7.68-7.54,16.75-7.54,26.46h-0.01H158.67c0-9.71-2.76-18.78-7.54-26.46      h207.54H378.97z" fill="#526471"/><path d="M464.28,351.02c4.78,7.68,7.54,16.75,7.54,26.46c0,27.72-22.47,50.19-50.19,50.19      s-50.19-22.47-50.19-50.19c0-9.71,2.76-18.78,7.54-26.46c8.85-14.25,24.64-23.73,42.65-23.73      C439.64,327.29,455.43,336.77,464.28,351.02z M442.16,377.48c0-11.34-9.19-20.53-20.53-20.53s-20.53,9.19-20.53,20.53      s9.19,20.53,20.53,20.53S442.16,388.82,442.16,377.48z" fill="#303C44"/><path d="M489.85,351.02v26.46h-18.02h-0.01c0-9.71-2.76-18.78-7.54-26.46H489.85z" fill="#526471"/><path d="M434.33,139.36c-18.44-9.7-42.99-16.26-75.66-16.26v96.74h75.66h55.51      C489.84,219.84,486.72,166.92,434.33,139.36z" fill="#007ECA"/><path d="M489.84,219.84h-1.81c-3.93-17-16.18-49.74-53.7-69.48      c-18.44-9.7-42.99-16.26-75.66-16.26v-11c32.67,0,57.22,6.56,75.66,16.26C486.72,166.92,489.84,219.84,489.84,219.84z" fill="#FFFFFF" opacity="0.2"/><path d="M358.67,84.33v266.69H151.13c-8.85-14.25-24.65-23.73-42.66-23.73c-18.01,0-33.8,9.48-42.65,23.73H22.15      V84.33H358.67z" fill="#ECEFF0"/><path d="M489.85,219.84v131.18h-25.57c-8.85-14.25-24.64-23.73-42.65-23.73s-33.8,9.48-42.65,23.73h-20.31      V219.84H489.85z" fill="#FFC035"/></g><g><polyline fill="none" points="489.85,351.02 489.85,219.84 489.84,219.84 434.33,219.84 358.67,219.84     "/><polyline fill="none" points="22.15,351.02 22.15,84.33 358.67,84.33 358.67,123.1 358.67,219.84 358.67,351.02     "/><path d="M489.84,219.84c0,0-3.12-52.92-55.51-80.48c-18.44-9.7-42.99-16.26-75.66-16.26h-0.01" fill="none"/><g><g><path d="M413.76,256H384.1c-2.209,0-4-1.791-4-4s1.791-4,4-4h29.66c2.209,0,4,1.791,4,4        S415.969,256,413.76,256z" fill="#ECEFF0"/></g></g><line fill="none" x1="371.43" x2="158.67" y1="377.48" y2="377.48"/><polyline fill="none" points="151.13,351.02 358.67,351.02 378.97,351.02     "/><polyline fill="none" points="471.83,377.48 489.85,377.48 489.85,351.02 464.28,351.02     "/><polyline fill="none" points="65.82,351.02 22.15,351.02 22.15,377.48 58.28,377.48     "/><path d="M65.82,351.02c8.85-14.25,24.64-23.73,42.65-23.73s33.81,9.48,42.66,23.73c4.78,7.68,7.54,16.75,7.54,26.46      c0,27.72-22.48,50.19-50.2,50.19s-50.19-22.47-50.19-50.19C58.28,367.77,61.04,358.7,65.82,351.02z" fill="none"/><path d="M378.98,351.02c8.85-14.25,24.64-23.73,42.65-23.73c18.01,0,33.8,9.48,42.65,23.73      c4.78,7.68,7.54,16.75,7.54,26.46c0,27.72-22.47,50.19-50.19,50.19s-50.19-22.47-50.19-50.19      C371.44,367.77,374.2,358.7,378.98,351.02z" fill="none"/><circle cx="421.63" cy="377.48" fill="none" r="20.53"/><path d="M108.47,356.95c11.34,0,20.54,9.19,20.54,20.53s-9.2,20.53-20.54,20.53c-11.33,0-20.53-9.19-20.53-20.53      S97.14,356.95,108.47,356.95z" fill="none"/></g></g></g><rect fill="#303C44" height="8.66" opacity="0.2" width="131.17" x="358.67" y="219.84"/><rect fill="#303C44" height="16.837" opacity="0.2" width="336.51" x="22.15" y="84.33"/><linearGradient gradientUnits="userSpaceOnUse" id="SVGID_1_" x1="160.205" x2="331.65" y1="206.595" y2="378.04"><stop offset="0" style="stop-color:#000000"/><stop offset="1" style="stop-color:#FFFFFF;stop-opacity:0"/></linearGradient><path d="M358.67,122.58v228.44H151.13c-8.85-14.25-24.65-23.73-42.66-23.73   c-18.01,0-33.8,9.48-42.65,23.73H22.15v-6.37L358.67,122.58z" fill="url(#SVGID_1_)" opacity="0.1"/><linearGradient gradientUnits="userSpaceOnUse" id="SVGID_2_" x1="425.25" x2="488.52" y1="289.08" y2="352.35"><stop offset="0" style="stop-color:#000000"/><stop offset="1" style="stop-color:#FFFFFF;stop-opacity:0"/></linearGradient><path d="M489.85,229.8v121.22h-25.57c-8.85-14.25-24.64-23.73-42.65-23.73   s-33.8,9.48-42.65,23.73h-15.67L489.85,229.8z" fill="url(#SVGID_2_)" opacity="0.1"/></g></svg>